# Blender v2.83.1 OBJ File: 'usbAplug.blend'
# www.blender.org
mtllib usbAplug.mtl
o Cube.001
v -4.528688 0.355459 1.156300
v -4.528688 0.640052 1.156300
v -4.513749 0.640050 -1.465709
v -3.389100 0.355459 -1.466559
v -3.389100 0.640052 -1.466559
v -4.528688 0.514216 1.156300
v -4.528688 0.514216 -1.466559
v -4.528688 0.355459 -1.466559
v -3.958894 0.640052 -1.466559
v -3.389100 0.514216 -1.466559
v -3.389100 0.640052 1.156300
v -3.389100 0.514216 1.156300
v -4.499891 0.640052 1.156300
v -3.958894 0.640052 -0.155129
v -3.389100 0.355459 1.156300
v -3.958894 0.514216 1.156300
v -3.389100 0.497755 -0.155129
v -3.958894 0.514216 -1.466559
v -3.412709 0.640052 1.156300
v -4.499891 0.514216 1.156300
v -3.412709 0.514216 1.156300
v -4.528688 0.614186 1.156300
v -3.389100 0.617069 1.156300
v -3.419343 0.640052 -1.466559
v -3.389100 0.607706 -1.466559
v -4.528688 0.610234 -1.466559
v -3.958894 0.608970 -1.466559
v -4.528688 0.562437 -0.155129
v -4.499891 0.514216 1.156300
v -4.528688 0.514216 1.156300
v -3.412709 0.514216 1.156300
v -3.958894 0.514216 1.156300
v -3.958894 0.514216 -1.466559
v -3.389100 0.514216 -1.466559
v -4.528688 0.514216 -1.466559
v -3.389100 0.514216 1.156300
v -4.499891 0.514216 1.156300
v -4.528688 0.514216 1.156300
v -3.412709 0.514216 1.156300
v -3.958894 0.514216 1.156300
v -3.958894 0.514216 -1.466559
v -3.389100 0.514216 -1.466559
v -4.528688 0.514216 -1.466559
v -3.389100 0.514216 1.156300
v -3.080086 0.776308 -0.239262
v -3.307159 0.288146 -1.725643
v -3.082089 0.206258 -0.250914
v -4.833790 0.777358 -0.238236
v -4.634311 0.290640 -1.727974
v -3.293734 0.715832 -1.728997
v -4.833528 0.206621 -0.237665
v -4.632272 0.715026 -1.729206
vt 0.298050 0.487779
vt 0.251316 0.316636
vt 0.324736 0.555310
vt 0.348145 0.557253
vt 0.353623 0.606359
vt 0.365788 0.574623
vt 0.373983 0.530984
vt 0.218332 0.406767
vt 0.512908 0.628866
vt 0.581450 0.631481
vt 0.350591 0.638622
vt 0.282333 0.561548
vt 0.328074 0.548242
vt 0.363265 0.585716
vt 0.246213 0.563797
vt 0.236296 0.499843
vt 0.367852 0.678823
vt 0.298181 0.640166
vt 0.404338 0.616615
vt 0.373978 0.555923
vt 0.351924 0.552654
vt 0.251867 0.357904
vt 0.368582 0.685823
vt 0.366846 0.681073
vt 0.324812 0.536216
vt 0.349483 0.553125
vt 0.347068 0.560166
vt 0.375404 0.574587
vt 0.330559 0.537368
vt 0.553150 0.634526
vt 0.786149 0.999911
vt 0.695738 0.807517
vt 0.000089 0.080168
vt 0.090991 0.397345
vt 0.066711 0.217751
vt 0.001165 0.433032
vt 0.786149 0.276548
vt 0.484767 0.000089
vt 0.135552 0.720073
vt 0.200768 0.782586
vt 0.200768 0.782586
vt 0.200768 0.782586
vt 0.266930 0.842931
vt 0.266930 0.842931
vt 0.368582 0.685823
vt 0.300203 0.635645
vt 0.245181 0.566083
vt 0.135552 0.720073
vt 0.240855 0.565211
vt 0.240855 0.565211
vt 0.365840 0.683323
vt 0.266930 0.842931
vt 0.302224 0.631123
vt 0.244151 0.568371
vt 0.135552 0.720073
vt 0.240855 0.565211
vt 0.368582 0.685823
vt 0.874978 0.492304
vt 0.874551 0.562445
vt 0.804556 0.562587
vt 0.945259 0.702868
vt 0.874987 0.703007
vt 0.874979 0.632729
vt 0.804978 0.632725
vt 0.734417 0.703007
vt 0.734417 0.632726
vt 0.804267 0.703014
vt 0.804738 0.773287
vt 0.804738 0.492165
vt 0.417929 0.681030
vt 0.874978 0.773287
vt 0.945259 0.632726
vn -0.9954 0.0958 -0.0057
vn 0.0000 0.0000 -1.0000
vn 0.0000 1.0000 -0.0000
vn 0.0000 -1.0000 0.0000
vn 0.0000 0.0000 1.0000
vn 1.0000 0.0000 0.0000
vn -1.0000 0.0000 0.0000
vn -0.8941 0.4475 0.0163
vn 0.9930 -0.1178 -0.0109
vn -0.0022 -1.0000 0.0015
vn 0.9886 -0.0004 -0.1509
vn 0.0006 0.0010 1.0000
vn 0.0017 -0.0079 -1.0000
vn -0.0006 0.9991 -0.0418
vn -0.9912 0.0044 -0.1323
vn -0.0006 -0.9984 -0.0564
vn 0.9895 -0.0322 -0.1406
vn -0.0015 0.0293 -0.9996
vn 1.0000 0.0000 -0.0053
vn 0.0025 -1.0000 0.0036
vn -0.9910 -0.0006 -0.1339
vn 0.0006 0.9992 -0.0406
vn 0.0076 -0.0205 0.9998
vn 0.0002 -0.0029 -1.0000
vn -0.0018 -0.9985 -0.0552
usemtl Material.001
s off
f 28/1/1 2/2/1 3/3/1
f 9/4/2 24/5/2 5/6/2
f 14/7/3 13/8/3 19/9/3
f 24/5/3 14/7/3 11/10/3
f 3/3/3 2/2/3 14/7/3
f 15/11/4 1/12/4 8/13/4
f 4/14/4 15/11/4 8/13/4
f 20/15/5 6/16/5 1/12/5
f 21/17/5 16/18/5 15/11/5
f 4/14/6 17/19/6 15/11/6
f 25/20/6 11/10/6 17/19/6
f 18/21/2 4/14/2 8/13/2
f 1/12/7 28/1/7 8/13/7
f 2/2/7 28/1/7 22/22/7
f 12/23/5 31/24/5 21/17/5
f 7/25/2 27/26/2 18/27/2
f 18/27/2 25/20/2 10/28/2
f 27/26/2 5/6/2 25/20/2
f 26/29/2 9/4/2 27/26/2
f 28/1/8 3/3/8 26/29/8
f 23/30/5 2/2/5 22/22/5
f 12/31/5 19/9/5 21/32/5
f 6/33/5 13/8/5 2/2/5
f 3/34/9 20/35/9 7/36/9
f 25/37/10 22/22/10 26/38/10
f 35/39/5 41/40/5 33/41/5
f 18/42/5 34/43/5 10/44/5
f 10/44/5 36/45/5 12/23/5
f 21/17/5 32/46/5 16/18/5
f 16/18/5 29/47/5 20/15/5
f 7/48/5 33/41/5 18/42/5
f 6/49/5 35/39/5 7/48/5
f 20/15/5 30/50/5 6/49/5
f 39/51/3 42/52/3 41/40/3
f 31/24/5 40/53/5 32/46/5
f 32/46/5 37/54/5 29/47/5
f 30/50/5 43/55/5 35/39/5
f 33/41/5 42/52/5 34/43/5
f 29/47/5 38/56/5 30/50/5
f 36/45/5 39/51/5 31/24/5
f 34/43/5 44/57/5 36/45/5
f 45/58/11 47/59/11 46/60/11
f 45/61/12 48/62/12 51/63/12
f 49/64/13 50/65/13 46/66/13
f 52/67/14 48/62/14 50/68/14
f 49/64/15 51/63/15 52/67/15
f 47/59/16 51/63/16 49/64/16
f 50/69/17 45/58/17 46/60/17
f 12/70/6 17/19/6 23/30/6
f 17/19/6 11/10/6 23/30/6
f 14/7/3 2/2/3 13/8/3
f 11/10/3 14/7/3 19/9/3
f 11/10/3 5/6/3 24/5/3
f 24/5/3 9/4/3 14/7/3
f 14/7/3 9/4/3 3/3/3
f 1/12/5 15/11/5 20/15/5
f 15/11/5 16/18/5 20/15/5
f 15/11/5 12/70/5 21/17/5
f 17/19/6 12/70/6 15/11/6
f 4/14/6 10/28/6 17/19/6
f 17/19/6 10/28/6 25/20/6
f 25/20/6 5/6/6 11/10/6
f 18/21/2 10/28/2 4/14/2
f 7/25/2 18/21/2 8/13/2
f 28/1/7 7/25/7 8/13/7
f 1/12/7 6/16/7 28/1/7
f 12/23/5 36/45/5 31/24/5
f 7/25/2 26/29/2 27/26/2
f 18/27/2 27/26/2 25/20/2
f 27/26/2 9/4/2 5/6/2
f 26/29/18 3/3/18 9/4/18
f 6/16/7 22/22/7 28/1/7
f 7/25/7 28/1/7 26/29/7
f 23/30/5 11/10/5 2/2/5
f 12/31/5 11/10/5 19/9/5
f 6/33/5 20/35/5 13/8/5
f 3/34/19 13/8/19 20/35/19
f 25/37/20 23/30/20 22/22/20
f 35/39/5 43/55/5 41/40/5
f 18/42/5 33/41/5 34/43/5
f 10/44/5 34/43/5 36/45/5
f 21/17/5 31/24/5 32/46/5
f 16/18/5 32/46/5 29/47/5
f 7/48/5 35/39/5 33/41/5
f 6/49/5 30/50/5 35/39/5
f 20/15/5 29/47/5 30/50/5
f 37/54/3 40/53/3 41/40/3
f 40/53/3 39/51/3 41/40/3
f 39/51/3 44/57/3 42/52/3
f 41/40/3 43/55/3 37/54/3
f 43/55/3 38/56/3 37/54/3
f 31/24/5 39/51/5 40/53/5
f 32/46/5 40/53/5 37/54/5
f 30/50/5 38/56/5 43/55/5
f 33/41/5 41/40/5 42/52/5
f 29/47/5 37/54/5 38/56/5
f 36/45/5 44/57/5 39/51/5
f 34/43/5 42/52/5 44/57/5
f 51/63/21 48/62/21 52/67/21
f 48/62/22 45/71/22 50/68/22
f 47/72/23 45/61/23 51/63/23
f 49/64/24 52/67/24 50/65/24
f 46/60/25 47/59/25 49/64/25
