# Blender 3.1.2
# www.blender.org
mtllib circuit_board.mtl
g Cube_Mesh
v 15.000000 -0.054734 -15.000000
v 15.000000 0.054734 -15.000000
v 15.000000 -0.054734 15.000000
v 15.000000 0.054734 15.000000
v -15.000000 -0.054734 -15.000000
v -15.000000 0.054734 -15.000000
v -15.000000 -0.054734 15.000000
v -15.000000 0.054734 15.000000
vn -0.0000 -1.0000 -0.0000
vn -0.0000 -0.0000 1.0000
vn -1.0000 -0.0000 -0.0000
vn -0.0000 1.0000 -0.0000
vn 1.0000 -0.0000 -0.0000
vn -0.0000 -0.0000 -1.0000
vt 0.000200 0.000200
vt 0.666866 0.333134
vt 0.000200 0.666467
vt 0.999800 0.333134
vt 0.666467 0.333533
vt 0.000200 0.333533
vt 0.000200 0.333134
vt 0.000200 0.999800
vt 0.666866 0.000200
vt 0.333134 0.999800
vt 0.666467 0.666467
vt 0.999800 0.000200
vt 0.333134 0.000200
vt 0.333533 0.333134
vt 0.333134 0.666467
vt 0.333533 0.333533
vt 0.333134 0.333533
vt 0.333533 0.000200
vt 0.333134 0.333134
vt 0.000200 0.666866
vt 0.666467 0.333134
vt 0.666467 0.000200
vt 0.333134 0.666866
vt 0.333533 0.666467
s 0
g off
g Cube_Circuit_Board
usemtl Circuit_Board
f 5/13/1 1/1/1 3/7/1
f 3/8/2 4/10/2 8/23/2
f 7/21/3 8/22/3 6/18/3
f 2/5/4 6/16/4 8/24/4
f 1/2/5 2/4/5 4/12/5
f 5/15/6 6/17/6 2/6/6
f 5/13/1 3/7/1 7/19/1
f 3/8/2 8/23/2 7/20/2
f 7/21/3 6/18/3 5/14/3
f 2/5/4 8/24/4 4/11/4
f 1/2/5 4/12/5 3/9/5
f 5/15/6 2/6/6 1/3/6
