# Blender v2.83.1 OBJ File: 'robbie.blend'
# www.blender.org
mtllib elevatingPlatformA.mtl
o Cube
v -12.121466 -0.713310 2.346721
v -12.121466 5.946947 2.346721
v -12.121466 -0.713310 -9.805895
v -12.121466 0.390799 -9.805895
v -2.129538 -0.713310 2.346721
v -2.129538 2.311207 2.346721
v -2.129538 -0.713310 -9.805895
v -2.129538 0.390799 -9.805895
v -12.121466 0.390799 -3.399658
v -4.733440 0.390799 -9.805895
v -2.129538 0.390799 -3.399658
v -3.598093 3.817002 2.346721
v -4.733440 0.390799 -3.399658
v -2.129538 2.311207 -3.549291
v -4.805245 3.817002 2.346721
v -12.121466 5.946947 -3.549291
v -3.526288 2.311207 2.346721
v -3.598093 3.817002 -3.549291
v -3.803952 0.390799 -3.399658
v -5.662930 0.390799 -3.399658
v -3.526288 2.311207 -3.549291
v -4.805245 3.817002 -3.549291
vt 0.375000 0.000000
vt 0.625000 0.000000
vt 0.625000 0.062500
vt 0.625000 0.125000
vt 0.625000 0.250000
vt 0.375000 0.250000
vt 0.625000 0.375000
vt 0.625000 0.500000
vt 0.375000 0.500000
vt 0.625000 0.625000
vt 0.625000 0.687500
vt 0.625000 0.750000
vt 0.375000 0.750000
vt 0.625000 0.812500
vt 0.625000 0.875000
vt 0.625000 0.937500
vt 0.625000 1.000000
vt 0.375000 1.000000
vt 0.125000 0.500000
vt 0.125000 0.750000
vt 0.812500 0.687500
vt 0.875000 0.687500
vt 0.875000 0.750000
vt 0.812500 0.750000
vt 0.687500 0.687500
vt 0.750000 0.687500
vt 0.750000 0.750000
vt 0.687500 0.750000
vt 0.750000 0.500000
vt 0.750000 0.625000
vt 0.687500 0.625000
vt 0.875000 0.500000
vt 0.875000 0.625000
vt 0.812500 0.625000
vn -1.0000 0.0000 0.0000
vn 0.0000 0.0000 -1.0000
vn 1.0000 0.0000 0.0000
vn 0.0000 0.0000 1.0000
vn 0.0000 -1.0000 0.0000
vn 0.2795 0.9601 0.0000
vn 0.9989 0.0476 0.0000
vn 0.0000 1.0000 0.0000
vn 0.0000 -0.0777 -0.9970
vn -0.0601 -0.0399 -0.9974
vn 0.0000 -0.0436 -0.9990
vn -0.0051 -0.0328 -0.9994
usemtl None
s off
f 1/1/1 2/2/1 16/3/1 9/4/1 4/5/1 3/6/1
f 3/6/2 4/5/2 10/7/2 8/8/2 7/9/2
f 7/9/3 8/8/3 11/10/3 14/11/3 6/12/3 5/13/3
f 5/13/4 6/12/4 17/14/4 12/15/4 15/16/4 2/17/4 1/18/4
f 3/19/5 7/9/5 5/13/5 1/20/5
f 22/21/6 16/22/6 2/23/6 15/24/6
f 21/25/7 18/26/7 12/27/7 17/28/7
f 8/8/8 10/29/8 13/30/8 19/31/8 11/10/8
f 10/29/8 4/32/8 9/33/8 20/34/8 13/30/8
f 14/11/8 21/25/8 17/28/8 6/12/8
f 11/10/9 19/31/9 21/25/9 14/11/9
f 19/31/10 13/30/10 18/26/10 21/25/10
f 18/26/8 22/21/8 15/24/8 12/27/8
f 13/30/11 20/34/11 22/21/11 18/26/11
f 20/34/12 9/33/12 16/22/12 22/21/12
