# Blender 3.1.2
# www.blender.org
mtllib ramp.mtl
o Cube
v -1.000000 -1.000000 1.000000
v -1.000000 -1.000000 -2.274230
v -1.000000 -1.000000 -1.000000
v -1.000000 1.000000 -1.000000
v 1.000000 -1.000000 1.000000
v -1.000000 1.000000 -2.274230
v 1.000000 -1.000000 -1.000000
v 1.000000 1.000000 -1.000000
v 1.000000 -1.000000 -2.274230
v 1.000000 1.000000 -2.274230
vn -0.0000 0.7071 0.7071
vn -0.0000 1.0000 -0.0000
vn 1.0000 -0.0000 -0.0000
vn -0.0000 -0.0000 -1.0000
vn -0.0000 -1.0000 -0.0000
vn -1.0000 -0.0000 -0.0000
vt 0.125000 0.750000
vt 0.375000 0.250000
vt 0.125000 0.500000
vt 0.375000 0.250000
vt 0.125000 0.500000
vt 0.625000 0.250000
vt 0.375000 0.750000
vt 0.625000 0.250000
vt 0.375000 0.500000
vt 0.625000 0.500000
vt 0.375000 0.500000
vt 0.625000 0.500000
s 0
f 4/6/1 5/7/1 8/10/1
f 8/10/2 6/8/2 4/6/2
f 8/10/3 5/7/3 7/9/3
f 6/8/4 9/11/4 2/2/4
f 7/9/5 1/1/5 3/5/5
f 3/4/6 1/1/6 4/6/6
f 4/6/6 2/2/6 3/4/6
f 7/9/3 10/12/3 8/10/3
f 3/5/5 9/11/5 7/9/5
f 4/6/1 1/1/1 5/7/1
f 8/10/2 10/12/2 6/8/2
f 6/8/4 10/12/4 9/11/4
f 7/9/5 5/7/5 1/1/5
f 4/6/6 6/8/6 2/2/6
f 7/9/3 9/11/3 10/12/3
f 3/5/5 2/3/5 9/11/5
