# Blender v2.83.1 OBJ File: 'poster.blend'
# www.blender.org
mtllib climbing_wires.mtl
o Cube
v -0.375460 -0.369334 0.000483
v -0.375460 0.369336 0.000483
v -0.375460 -0.369334 -0.000482
v -0.375460 0.369336 -0.000482
v 0.375460 -0.369334 0.000483
v 0.375460 0.369336 0.000483
v 0.375460 -0.369334 -0.000482
v 0.375460 0.369336 -0.000482
vt 0.977599 0.375448
vt 0.974224 0.638054
vt 0.635503 0.720851
vt 0.635242 0.344790
vt 0.321346 0.721120
vt 0.320477 0.345637
vt 0.048854 0.353201
vt 0.203479 0.336160
vt 0.022401 0.624552
vt 0.025776 0.361946
vt 0.505063 0.106091
vt 0.267108 0.102715
vt 0.245713 0.516518
vt 0.095322 0.506067
vn -1.0000 0.0000 0.0000
vn 0.0000 0.0000 -1.0000
vn 1.0000 0.0000 0.0000
vn 0.0000 0.0000 1.0000
vn 0.0000 -1.0000 0.0000
vn 0.0000 1.0000 0.0000
usemtl Material.003
s off
f 1/1/1 2/2/1 4/3/1 3/4/1
f 3/4/2 4/3/2 8/5/2 7/6/2
f 7/6/3 8/5/3 6/7/3 5/8/3
f 5/8/4 6/7/4 2/9/4 1/10/4
f 3/11/5 7/6/5 5/8/5 1/12/5
f 8/5/6 4/13/6 2/14/6 6/7/6
